<svg xmlns:xlink="http://www.w3.org/1999/xlink" xmlns="http://www.w3.org/2000/svg" id="83wWRfjn-" viewBox="0 0 320 166.86450663332178" height="166.86450663332178" width="320" style="width: 320px; height: 166.865px; position: absolute; top: 50%; left: 50%; z-index: 0; cursor: pointer; overflow: visible; transform: translate(-50%, -50%) scale(0.646875);"><defs id="SvgjsDefs1526"><linearGradient id="SvgjsLinearGradient1531"><stop id="SvgjsStop1532" stop-color="#ef4136" offset="0"></stop><stop id="SvgjsStop1533" stop-color="#fbb040" offset="1"></stop></linearGradient><linearGradient id="SvgjsLinearGradient1534"><stop id="SvgjsStop1535" stop-color="#ef4136" offset="0"></stop><stop id="SvgjsStop1536" stop-color="#fbb040" offset="1"></stop></linearGradient><linearGradient id="SvgjsLinearGradient1531"><stop id="SvgjsStop1532" stop-color="#ef4136" offset="0"></stop><stop id="SvgjsStop1533" stop-color="#fbb040" offset="1"></stop></linearGradient><linearGradient id="SvgjsLinearGradient1531"><stop id="SvgjsStop1532" stop-color="#ef4136" offset="0"></stop><stop id="SvgjsStop1533" stop-color="#fbb040" offset="1"></stop></linearGradient><linearGradient id="SvgjsLinearGradient1531"><stop id="SvgjsStop1532" stop-color="#ef4136" offset="0"></stop><stop id="SvgjsStop1533" stop-color="#fbb040" offset="1"></stop></linearGradient><linearGradient id="SvgjsLinearGradient1531"><stop id="SvgjsStop1532" stop-color="#ef4136" offset="0"></stop><stop id="SvgjsStop1533" stop-color="#fbb040" offset="1"></stop></linearGradient><linearGradient id="SvgjsLinearGradient1531"><stop id="SvgjsStop1532" stop-color="#ef4136" offset="0"></stop><stop id="SvgjsStop1533" stop-color="#fbb040" offset="1"></stop></linearGradient><linearGradient id="SvgjsLinearGradient1531"><stop id="SvgjsStop1532" stop-color="#ef4136" offset="0"></stop><stop id="SvgjsStop1533" stop-color="#fbb040" offset="1"></stop></linearGradient><linearGradient id="SvgjsLinearGradient1531"><stop id="SvgjsStop1532" stop-color="#ef4136" offset="0"></stop><stop id="SvgjsStop1533" stop-color="#fbb040" offset="1"></stop></linearGradient><linearGradient id="SvgjsLinearGradient1531"><stop id="SvgjsStop1532" stop-color="#ef4136" offset="0"></stop><stop id="SvgjsStop1533" stop-color="#fbb040" offset="1"></stop></linearGradient><linearGradient id="SvgjsLinearGradient1531"><stop id="SvgjsStop1532" stop-color="#ef4136" offset="0"></stop><stop id="SvgjsStop1533" stop-color="#fbb040" offset="1"></stop></linearGradient><linearGradient id="SvgjsLinearGradient1531"><stop id="SvgjsStop1532" stop-color="#ef4136" offset="0"></stop><stop id="SvgjsStop1533" stop-color="#fbb040" offset="1"></stop></linearGradient><linearGradient id="SvgjsLinearGradient1531"><stop id="SvgjsStop1532" stop-color="#ef4136" offset="0"></stop><stop id="SvgjsStop1533" stop-color="#fbb040" offset="1"></stop></linearGradient><linearGradient id="SvgjsLinearGradient1531"><stop id="SvgjsStop1532" stop-color="#ef4136" offset="0"></stop><stop id="SvgjsStop1533" stop-color="#fbb040" offset="1"></stop></linearGradient><linearGradient id="SvgjsLinearGradient1531"><stop id="SvgjsStop1532" stop-color="#ef4136" offset="0"></stop><stop id="SvgjsStop1533" stop-color="#fbb040" offset="1"></stop></linearGradient><linearGradient id="SvgjsLinearGradient1531"><stop id="SvgjsStop1532" stop-color="#ef4136" offset="0"></stop><stop id="SvgjsStop1533" stop-color="#fbb040" offset="1"></stop></linearGradient><linearGradient id="SvgjsLinearGradient1531"><stop id="SvgjsStop1532" stop-color="#ef4136" offset="0"></stop><stop id="SvgjsStop1533" stop-color="#fbb040" offset="1"></stop></linearGradient><linearGradient id="SvgjsLinearGradient1531"><stop id="SvgjsStop1532" stop-color="#ef4136" offset="0"></stop><stop id="SvgjsStop1533" stop-color="#fbb040" offset="1"></stop></linearGradient><linearGradient id="SvgjsLinearGradient1531"><stop id="SvgjsStop1532" stop-color="#ef4136" offset="0"></stop><stop id="SvgjsStop1533" stop-color="#fbb040" offset="1"></stop></linearGradient><linearGradient id="SvgjsLinearGradient1531"><stop id="SvgjsStop1532" stop-color="#ef4136" offset="0"></stop><stop id="SvgjsStop1533" stop-color="#fbb040" offset="1"></stop></linearGradient><linearGradient id="SvgjsLinearGradient1534"><stop id="SvgjsStop1535" stop-color="#ef4136" offset="0"></stop><stop id="SvgjsStop1536" stop-color="#fbb040" offset="1"></stop></linearGradient><linearGradient id="SvgjsLinearGradient1534"><stop id="SvgjsStop1535" stop-color="#ef4136" offset="0"></stop><stop id="SvgjsStop1536" stop-color="#fbb040" offset="1"></stop></linearGradient></defs><g id="SvgjsG1527" featurekey="symbolFeature-0" transform="matrix(1.954177204357121,0,0,1.954177204357121,-46.223375729599795,-19.46629427488638)" fill="url(&quot;#SvgjsLinearGradient1531&quot;)"><path xmlns="http://www.w3.org/2000/svg" d="M72.083,35.548c0,12.623-10.226,22.849-22.84,22.849c-12.626,0-22.856-10.226-22.856-22.849  c0-12.619,10.23-22.849,22.856-22.849C61.857,12.699,72.083,22.93,72.083,35.548L72.083,35.548z M26.115,46.496L49.243,95.35  l23.119-48.854c6.042-12.774,0.591-28.025-12.18-34.071c-12.77-6.041-28.025-0.591-34.066,12.18  C22.833,31.532,22.833,39.565,26.115,46.496z" fill="url(&quot;#SvgjsLinearGradient1531&quot;)"></path><g xmlns="http://www.w3.org/2000/svg" fill="url(&quot;#SvgjsLinearGradient1531&quot;)"><path d="M45.345,34.827c-1.75-4.071-5.273-7.116-9.555-8.264c-2.667,3.991-3.426,8.956-2.067,13.559   C37.421,37.991,41.312,36.219,45.345,34.827z" fill="url(&quot;#SvgjsLinearGradient1531&quot;)"></path></g><g xmlns="http://www.w3.org/2000/svg" fill="url(&quot;#SvgjsLinearGradient1531&quot;)"><path d="M58.33,22.179c-3.472-2.362-7.725-3.283-11.859-2.561c2.679,4.054,4.722,8.497,6.062,13.171   c1.389-0.312,2.793-0.583,4.193-0.802C56.217,28.629,56.777,25.2,58.33,22.179z" fill="url(&quot;#SvgjsLinearGradient1531&quot;)"></path></g><g xmlns="http://www.w3.org/2000/svg" fill="url(&quot;#SvgjsLinearGradient1531&quot;)"><path d="M50.879,33.177c-1.315,0.334-2.627,0.705-3.914,1.114c-1.844-4.396-5.536-7.754-10.083-9.18   c2.051-2.426,4.767-4.193,7.817-5.083C47.438,24.061,49.521,28.499,50.879,33.177z" fill="url(&quot;#SvgjsLinearGradient1531&quot;)"></path></g><g xmlns="http://www.w3.org/2000/svg" fill="url(&quot;#SvgjsLinearGradient1531&quot;)"><path d="M59.71,23.229c-1.287,2.637-1.743,5.611-1.3,8.513c2.127-0.278,4.266-0.455,6.408-0.531   C63.949,28.098,62.169,25.318,59.71,23.229z" fill="url(&quot;#SvgjsLinearGradient1531&quot;)"></path></g><g xmlns="http://www.w3.org/2000/svg" fill="url(&quot;#SvgjsLinearGradient1531&quot;)"><path d="M65.189,32.899c-2.151,0.067-4.291,0.235-6.424,0.514c0.885,3.21,2.848,6.016,5.563,7.948   C65.367,38.67,65.662,35.747,65.189,32.899z" fill="url(&quot;#SvgjsLinearGradient1531&quot;)"></path></g><g xmlns="http://www.w3.org/2000/svg" fill="url(&quot;#SvgjsLinearGradient1531&quot;)"><path d="M52.386,51.41c0.649-5.547,0.286-11.17-1.063-16.588c-1.269,0.321-2.539,0.675-3.788,1.072   c1.573,5.235,0.392,10.909-3.134,15.086C46.981,51.791,49.728,51.938,52.386,51.41z" fill="url(&quot;#SvgjsLinearGradient1531&quot;)"></path></g><g xmlns="http://www.w3.org/2000/svg" fill="url(&quot;#SvgjsLinearGradient1531&quot;)"><path d="M42.699,50.339c3.438-3.747,4.667-9.032,3.22-13.914c-4.033,1.393-7.931,3.177-11.619,5.329   C35.895,45.584,38.907,48.66,42.699,50.339z" fill="url(&quot;#SvgjsLinearGradient1531&quot;)"></path></g><g xmlns="http://www.w3.org/2000/svg" fill="url(&quot;#SvgjsLinearGradient1531&quot;)"><path d="M54.148,50.955c0.57-5.535,0.174-11.125-1.172-16.525c1.359-0.304,2.717-0.561,4.088-0.776   c0.991,3.784,3.324,7.083,6.556,9.286C61.658,46.761,58.246,49.651,54.148,50.955z" fill="url(&quot;#SvgjsLinearGradient1531&quot;)"></path></g></g><g id="SvgjsG1528" featurekey="nameFeature-0" transform="matrix(1.4168323864327317,0,0,1.4168323864327317,118.35641384407991,41.41484104684663)" fill="url(&quot;#SvgjsLinearGradient1534&quot;)"><path d="M7.88 27.240000000000002 c-0.85332 -0.34668 -1.6466 -0.73332 -2.38 -1.16 s-1.3666 -0.94 -1.9 -1.54 s-0.94664 -1.3067 -1.24 -2.12 s-0.44 -1.78 -0.44 -2.9 c0 -1.3867 0.24 -2.6067 0.72 -3.66 s1.1533 -1.94 2.02 -2.66 s1.9134 -1.2667 3.14 -1.64 s2.5867 -0.56 4.08 -0.56 c1.2267 0 2.48 0.12668 3.76 0.38 s2.8133 0.68664 4.6 1.3 l-2.72 4.88 c-1.7333 -0.82668 -3.56 -1.24 -5.48 -1.24 c-0.37332 0 -0.76 0.04 -1.16 0.12 s-0.76 0.22 -1.08 0.42 s-0.58668 0.47332 -0.8 0.82 s-0.32 0.8 -0.32 1.36 c0 0.45332 0.08668 0.82664 0.26 1.12 s0.39332 0.54664 0.66 0.75996 s0.57336 0.39332 0.92004 0.54 s0.69336 0.28668 1.04 0.42 l2.36 0.92 c1.0133 0.4 1.94 0.82 2.78 1.26 s1.5533 0.97332 2.14 1.6 s1.04 1.3934 1.36 2.3 s0.48 2.04 0.48 3.4 s-0.24668 2.6 -0.74 3.72 s-1.2133 2.0733 -2.16 2.86 s-2.1134 1.4 -3.5 1.84 s-2.9734 0.66 -4.76 0.66 c-0.82668 0 -1.5867 -0.02668 -2.28 -0.08 s-1.3666 -0.14664 -2.02 -0.27996 s-1.3066 -0.29332 -1.96 -0.48 s-1.3533 -0.42668 -2.1 -0.72 l1.36 -5.6 c1.0933 0.29332 2.1666 0.55332 3.22 0.78 s2.1266 0.34 3.22 0.34 c1.4667 0 2.5867 -0.19332 3.36 -0.58 s1.2266 -1.1267 1.36 -2.22 c0.05332 -0.56 -0.013359 -1.0267 -0.20004 -1.4 s-0.45336 -0.68664 -0.80004 -0.93996 s-0.73336 -0.46 -1.16 -0.62 l-1.28 -0.48 z M25.880000000000003 24.04 l-3.9999 0.000039062 l2.64 -4.92 l6.32 0 l0.52 2.32 c0.61332 -0.72 1.3666 -1.3133 2.26 -1.78 s1.94 -0.7 3.14 -0.7 c1.1733 0 2.2666 0.20668 3.28 0.62 s1.8933 1.0466 2.64 1.9 s1.3334 1.9266 1.76 3.22 s0.64 2.8333 0.64 4.62 c0 3.4667 -0.97332 6.1532 -2.92 8.06 s-4.6932 2.86 -8.24 2.86 c-0.66668 0 -1.3334 -0.04 -2 -0.12 l0 9.24 l-6.04 0 l0 -25.32 z M31.92 34.8 c0.66668 0.13332 1.3466 0.20004 2.04 0.20004 c1.4933 0 2.68 -0.44 3.56 -1.32 s1.32 -2.28 1.32 -4.2 c0 -1.4667 -0.30668 -2.68 -0.92 -3.64 s-1.5466 -1.44 -2.8 -1.44 c-1.1467 0 -1.9667 0.40668 -2.46 1.22 s-0.74 1.8066 -0.74 2.98 l0 6.2 z M57.279999999999994 18.88 c1.3867 0 2.68 0.19336 3.88 0.58004 s2.2333 1.0067 3.1 1.86 s1.5467 1.96 2.04 3.32 s0.74 3 0.74 4.92 s-0.24668 3.56 -0.74 4.92 s-1.1733 2.4667 -2.04 3.32 s-1.9 1.4733 -3.1 1.86 s-2.4933 0.58 -3.88 0.58 c-1.4133 0 -2.7133 -0.19332 -3.9 -0.58 s-2.2134 -1.0067 -3.08 -1.86 s-1.5467 -1.96 -2.04 -3.32 s-0.74 -3 -0.74 -4.92 c0 -1.8933 0.24668 -3.5133 0.74 -4.86 s1.1733 -2.4534 2.04 -3.32 s1.8934 -1.5 3.08 -1.9 s2.4867 -0.6 3.9 -0.6 z M57.279999999999994 35 c1.2 0 2.14 -0.4 2.82 -1.2 s1.02 -2.2133 1.02 -4.24 s-0.34 -3.4467 -1.02 -4.26 s-1.62 -1.22 -2.82 -1.22 c-1.1733 0 -2.1133 0.42 -2.82 1.26 s-1.06 2.2467 -1.06 4.22 c0 2.0267 0.34668 3.44 1.04 4.24 s1.64 1.2 2.84 1.2 z M71.88 24.119999999999997 l-2.48 0 l0 -5.04 l2.48 0 l0 -5.68 l6 0 l0 5.68 l4.96 0 l-2.8 5.04 l-2.36 0 l0.2 1.28 l0 6.28 c0 0.69332 0.04668 1.2533 0.14 1.68 s0.24 0.76 0.44 1 s0.45332 0.40668 0.76 0.5 s0.66 0.14 1.06 0.14 c0.29332 0 0.65332 -0.03332 1.08 -0.1 s0.88 -0.14 1.36 -0.22 l0.32 2.68 l0.24 2.4 c-0.77332 0.16 -1.48 0.28 -2.12 0.36 s-1.2933 0.12 -1.96 0.12 c-2.48 0 -4.32 -0.57332 -5.52 -1.72 s-1.8 -3.04 -1.8 -5.68 l0 -8.72 z M85.96 24.119999999999997 l-2.48 0 l0 -5.04 l2.48 0 l0 -5.68 l6 0 l0 5.68 l4.96 0 l-2.8 5.04 l-2.36 0 l0.2 1.28 l0 6.28 c0 0.69332 0.04668 1.2533 0.14 1.68 s0.24 0.76 0.44 1 s0.45332 0.40668 0.76 0.5 s0.66 0.14 1.06 0.14 c0.29332 0 0.65332 -0.03332 1.08 -0.1 s0.88 -0.14 1.36 -0.22 l0.32 2.68 l0.24 2.4 c-0.77332 0.16 -1.48 0.28 -2.12 0.36 s-1.2933 0.12 -1.96 0.12 c-2.48 0 -4.32 -0.57332 -5.52 -1.72 s-1.8 -3.04 -1.8 -5.68 l0 -8.72 z M104.91999999999999 19.12 l0 20.88 l-6.04 0 l0 -14.44 l0.2 -1.44 l-3.44 0 l2.72 -5 l6.56 0 z M104.75999999999999 17.4 l-6 0 l0 -5.44 l6 0 l0 5.44 z M117.71999999999998 18.88 c1.3867 0 2.6332 0.19324 3.7399 0.57992 s2.0334 1.0134 2.78 1.88 s1.32 1.98 1.72 3.34 s0.6 3 0.6 4.92 l0 0.62 l-0.08 1.26 l-11.2 0 l-0.84 -0.12 c0.02668 0.77332 0.11336 1.3933 0.26004 1.86 s0.36 0.83336 0.64 1.1 s0.62 0.45336 1.02 0.56004 s0.85332 0.17336 1.36 0.20004 c0.82668 0.05332 1.54 -0.06668 2.14 -0.36 s1.1667 -0.89332 1.7 -1.8 c0.82668 0.26668 1.5867 0.52 2.28 0.76 c0.58668 0.21332 1.12 0.4 1.6 0.56 s0.72 0.22668 0.72 0.2 c-0.96 2 -2.1267 3.46 -3.5 4.38 s-3.02 1.38 -4.94 1.38 c-1.4133 0 -2.6933 -0.18668 -3.84 -0.56 s-2.12 -0.98 -2.92 -1.82 s-1.42 -1.9333 -1.86 -3.28 s-0.66 -2.9934 -0.66 -4.94 c0 -1.8933 0.22 -3.5133 0.66 -4.86 s1.06 -2.4534 1.86 -3.32 s1.7733 -1.5067 2.92 -1.92 s2.4267 -0.62 3.84 -0.62 z M119.91999999999999 26.880000000000003 l0.60008 0.08 c-0.05332 -0.93332 -0.3 -1.66 -0.74 -2.18 s-1.1267 -0.78 -2.06 -0.78 c-1.0667 0 -1.8334 0.26 -2.3 0.78 s-0.75336 1.2467 -0.86004 2.18 c0.13332 -0.02668 0.25332 -0.04668 0.36 -0.06 s0.22668 -0.02 0.36 -0.02 l4.64 0 z M136.96 19.84 c0.32 -0.21332 0.76664 -0.42 1.34 -0.62 s1.22 -0.3 1.94 -0.3 c0.61332 0 1.1133 0.02668 1.5 0.08 s0.58 0.06664 0.58 0.039961 l0 5.32 c-0.61332 -0.05332 -1.2133 -0.06664 -1.8 -0.039961 c-0.50668 0.05332 -1.0334 0.14 -1.58 0.26 s-1.0467 0.34 -1.5 0.66 c-0.53332 0.37332 -0.91332 0.88 -1.14 1.52 s-0.34 1.52 -0.34 2.64 l0 10.64 l-6 0 l0 -15.88 l-3.24 0 l2.56 -5.08 l6.68 0 l0 1.56 c0.13332 -0.10668 0.25332 -0.21336 0.36 -0.32004 c0.10668 -0.08 0.21336 -0.16668 0.32004 -0.26 s0.21336 -0.16664 0.32004 -0.21996 z" fill="url(&quot;#SvgjsLinearGradient1534&quot;)"></path></g></svg>